<svg xmlns="http://www.w3.org/2000/svg" width="565" height="565" fill="none">
  <path fill="#FFFFFF" fill-rule="evenodd" d="M307.501.96c-19.6-1.212-38.76-1.6-58.32.788-64.64 7.093-126.013 37.8-170.867 84.8-33.693 35-58.053 79.053-69.946 126.133-8.174 32.293-10.027 65.72-7 98.84 6.12 61.68 33.6 120.933 76.493 165.653 49.147 51.8 118.32 83.76 189.747 86.734 12.88.626 25.826.026 38.706-.574 2.687-.342 5.391-.646 8.099-.95 8.04-.904 16.121-1.811 23.941-3.756a431.82 431.82 0 0 1 1.843-.382l1.727-.354.003-.001h.003l.002-.001h.003l.003-.001c6.773-1.385 13.518-2.764 20.07-5.088 41.693-11.827 80.546-34.44 112.306-63.853 2.527-2.505 5.038-5.022 7.548-7.538h.001v-.001c2.153-2.157 4.304-4.314 6.465-6.461 48.626-51.667 76.866-121.974 75.866-193.054.987-72.4-28.76-144.253-79.16-195.987-29.826-31.2-66.96-54.96-107.52-69.64-3.053-.913-6.077-1.884-9.097-2.853-7.727-2.481-15.419-4.95-23.463-6.426-12.118-3.08-24.416-4.51-36.794-5.95l-.659-.077Zm-113.2 75.828c35.334-18.84 71.947-36.014 109.854-49.054-54.987-5.453-110.84 8.44-157.667 37.494-35.973 22.693-66.8 54.52-87.36 91.813 2.493-1.787 4.96-3.547 7.56-5.173l.027-.017c42.044-25.715 84.262-51.535 127.586-75.064Zm169.8-36.614c18.453 6.027 36.187 14.56 52.64 24.84 6.702 3.704 12.665 8.258 18.682 12.853a447.753 447.753 0 0 0 6.238 4.707c7.933 6.467 15.467 13.48 22.92 20.494-32.52-5.76-66.067-6.4-98.8-1.894-31.653 3.6-61.827 11.574-92 21.534-31.787 11.173-62.947 24.266-93.133 39.2-18.588 8.578-36.701 18.283-54.773 27.965h-.001a4364.15 4364.15 0 0 1-12.013 6.421c-24.048 13.016-47.942 26.312-71.837 39.609l-.003.001-.032.018-.032.018-.032.017-.058.033c-4.152 2.311-8.305 4.622-12.46 6.931a542.894 542.894 0 0 0 1.55-7.871c1.008-5.254 2.015-10.507 3.33-15.689 1.814-6.413 3.694-12.8 5.587-19.187 56.654-35.413 113.547-70.92 172.36-102.68 44.827-23.44 91.534-44.093 140.72-56.52.861-.145 1.745-.347 2.639-.552 2.87-.656 5.844-1.336 8.508-.248Zm166.84 183.2c-7.013-30.627-20.24-59.653-37.693-85.733-45.44-14.787-95.053-15.774-141.88-7.454-17.147 3.067-33.907 6.627-50.493 12.067-20.307 5.84-40.214 13.48-59.72 21.573-54.467 22.615-104.455 50.21-155.785 78.547l-8.722 4.813c-4.67 2.596-9.335 5.199-14 7.801-11.92 6.65-23.839 13.3-35.827 19.826-.613 11.867.094 24.173 1.347 36 41.04-20.32 82.773-40.733 124.4-59.6 43.933-19.733 89.76-37.4 136.56-48.987 51.08-12.32 103.027-16.853 155.067-7.76 30.133 5.454 59.426 15.054 86.746 28.907Zm-111.173-5.373c40.213 4.093 79.546 17.373 114.6 37.373 2.231.98 2.337 2.637 2.46 4.546.041.635.083 1.298.206 1.974 1.507 20.813.84 42.013-2.76 62.587-37.88-21.574-79.08-36.507-122.44-41.974-51.64-7.2-104.693-1.733-155.093 10.76-47.653 11.467-92.747 28.12-137.987 46.694-25.453 10.413-50.84 21.026-76.08 31.96-4.013-11.04-7.226-22.4-10.04-33.8 13.434-6.447 26.81-12.967 40.18-19.483l.001-.001c28.88-14.076 57.734-28.139 87.099-41.436 47.12-21.32 97.08-40.734 147.68-51.8 36.934-8.027 74.48-11.24 112.174-7.4Zm108.293 133.76c-37.387-22.32-78.2-37.8-121.56-43.067-57.947-7.707-116.32 1.76-171.973 18.093-33.227 9.547-65.307 21.654-97.387 34.467-28.08 11.493-56.093 23.133-83.947 35.173 5.987 11.36 12.454 22.334 19.734 32.92 12.052-4.61 24.285-8.773 36.511-12.935l.002-.001c3.72-1.266 7.44-2.532 11.153-3.81 57.88-19.52 119.16-37.08 180.174-42.52 57.586-5.16 115.666 1.32 169.666 22.493 11.627 4.52 23.014 9.76 34.094 15.493 10.04-17.666 18.226-36.666 23.533-56.306Zm-101.813 54.507c22.093 5.693 43.64 14.266 64.066 24.413-12.906 17.44-27.426 33.467-44.093 47.373-39.853-15.2-82.8-22.733-125.386-23.56-66.014-1.546-132.147 13.027-195.72 29.454-12.787-9.627-24.027-20.867-34.76-32.694 61.693-21.4 122.919-42.413 187.893-51.68 48.893-7.32 100.106-6.213 148 6.694Zm-73.987 121.599c23.973-6.96 46.947-16.96 67.907-30.586-42.134-13.494-86.04-17.934-130.134-15.774-45.453 2.52-91.013 11.4-135.093 22.507 27.653 15.867 58.44 26.427 89.973 31.12 26.12 3.76 52.92 3.267 78.96-.907 6.632-.859 13.181-2.537 19.708-4.209 2.895-.742 5.786-1.483 8.679-2.151Z" clip-rule="evenodd"/>
</svg>
